<?xml version="1.0" encoding="UTF-8"?>
<svg version="1.1" xmlns="http://www.w3.org/2000/svg" width="1024" height="1024">
<path d="M0 0 C282.15 0 564.3 0 855 0 C855 285.45 855 570.9 855 865 C572.85 865 290.7 865 0 865 C0 579.55 0 294.1 0 0 Z " fill="#FDFDFD" transform="translate(89,83)"/>
<path d="M0 0 C0.92103516 0.17660156 1.84207031 0.35320312 2.79101562 0.53515625 C41.15176719 8.0459633 77.81100613 26.39114249 108 51 C108.90758057 51.73404053 108.90758057 51.73404053 109.83349609 52.48291016 C123.47121237 63.58774664 136.36440853 75.96816924 147 90 C147.76062744 90.97864014 147.76062744 90.97864014 148.53662109 91.97705078 C157.89159901 104.03415839 165.88725693 116.50109745 173 130 C173.47034668 130.88606934 173.94069336 131.77213867 174.42529297 132.68505859 C192.94190571 168.05006319 201.46007873 206.53561754 201.375 246.3125 C201.37418427 247.75524796 201.37418427 247.75524796 201.37335205 249.22714233 C201.19368564 318.63658901 172.00470779 380.04163434 124 429.1875 C118.95298261 434.17093292 113.57193049 438.61936182 108 443 C107.03707031 443.77988281 106.07414062 444.55976562 105.08203125 445.36328125 C83.13022949 462.80786896 58.32380404 475.57589756 32 485 C31.19385254 485.29245605 30.38770508 485.58491211 29.55712891 485.88623047 C19.87081016 489.34752398 10.09025978 491.7662872 0 493.75 C-1.00716064 493.94883789 -2.01432129 494.14767578 -3.05200195 494.35253906 C-19.30808841 497.36431261 -35.55387994 498.41173679 -52.0625 498.375 C-52.95086548 498.37478851 -53.83923096 498.37457703 -54.7545166 498.37435913 C-69.83736526 498.33874338 -84.21651044 497.17634127 -99 494 C-99.93134766 493.80744629 -100.86269531 493.61489258 -101.82226562 493.41650391 C-144.36467803 484.49511854 -184.6935735 464.59057586 -216.734375 435.08203125 C-218.80892036 433.1755956 -220.92265931 431.3323439 -223.0625 429.5 C-231.22766763 422.35137934 -238.31233667 414.53227984 -245 406 C-245.50611816 405.3596582 -246.01223633 404.71931641 -246.53369141 404.05957031 C-253.65659746 395.02409092 -260.25795191 385.98617058 -266 376 C-266.72227121 374.78102178 -267.44494378 373.56228129 -268.16796875 372.34375 C-278.62479402 354.49631851 -285.93447927 335.73938555 -292 316 C-292.22026855 315.29037109 -292.44053711 314.58074219 -292.66748047 313.84960938 C-295.12209402 305.80427686 -296.70891314 297.64509598 -298.1875 289.375 C-298.35475586 288.44486084 -298.52201172 287.51472168 -298.69433594 286.55639648 C-303.55880125 257.97390156 -303.09847179 226.31101819 -297 198 C-296.78569336 196.96037109 -296.57138672 195.92074219 -296.35058594 194.84960938 C-288.58814133 157.7209442 -272.64402331 122.73873498 -249 93 C-248.28457031 92.0925 -247.56914062 91.185 -246.83203125 90.25 C-235.26339287 75.83527183 -222.54883032 62.42701652 -208 51 C-207.01386719 50.20851563 -206.02773438 49.41703125 -205.01171875 48.6015625 C-178.25631092 27.47711846 -147.15250536 11.78085569 -114.04833984 3.52197266 C-112.0819565 3.02088474 -110.12835288 2.47043284 -108.17578125 1.91796875 C-73.93357257 -7.47840301 -34.62645754 -6.98543098 0 0 Z " fill="#008001" transform="translate(566,277)"/>
<path d="M0 0 C282.15 0 564.3 0 855 0 C855 285.45 855 570.9 855 865 C572.85 865 290.7 865 0 865 C0 579.55 0 294.1 0 0 Z M26 27 C26 294.96 26 562.92 26 839 C290.66 839 555.32 839 828 839 C828 571.04 828 303.08 828 27 C563.34 27 298.68 27 26 27 Z " fill="#028103" transform="translate(89,83)"/>
</svg>
